# xmcd
#
# Track frame offsets: 
#        150
#        19742
#        37644
#        54902
#        71246
#        84774
#        104917
#        118139
#        134159
#        148361
#
# Disc length: 2161 seconds
#
# Revision: 1
# Processed by: cddbd v1.5.2PL0 Copyright (c) Steve Scherf et al.
# Submitted via: ExactAudioCopyFreeDBPlugin 1.0
#
DISCID=92086f0a
DTITLE=Robynn and Kendy - Picturesque
DYEAR=2014
DGENRE=Country
TTITLE0=NOVEL and COFFEE (小說伴咖啡)
TTITLE1=SUNSET (SUNSET)
TTITLE2=FLY AWAY (無人島)
TTITLE3=STARS (一顆星的故事)
TTITLE4=BETWEEN THE LINES (陶瓷娃娃)
TTITLE5=PLANET (第十行星)
TTITLE6=只剩下LALALA (LALALA)
TTITLE7=BUTTERFLIES (蝶亂飛)
TTITLE8=GIRL AFTER ALL (NOT JUST ANOTHER GIRL)
TTITLE9=YÉYE (月湖)
EXTD=
EXTT0=
EXTT1=
EXTT2=
EXTT3=
EXTT4=
EXTT5=
EXTT6=
EXTT7=
EXTT8=
EXTT9=
PLAYORDER=
